<svg height="5358" width="720" xmlns="http://www.w3.org/2000/svg">
<rect height="5358" fill="#555" width="720"></rect>
<text fill="#7f7" font-family="Courier New" font-size="12" xml:space="preserve">
<tspan x="10" y="26">└─┬ gulp-email-builder@3.0.0 </tspan>
<tspan x="10" y="42">  ├── bluebird@3.5.0 </tspan>
<tspan x="10" y="58">  ├─┬ del@2.2.2 </tspan>
<tspan x="10" y="74">  │ ├─┬ globby@5.0.0 </tspan>
<tspan x="10" y="90">  │ │ ├── array-union@1.0.2 </tspan>
<tspan x="10" y="106">  │ │ ├── arrify@1.0.1 </tspan>
<tspan x="10" y="122">  │ │ └─┬ glob@7.1.1 </tspan>
<tspan x="10" y="138">  │ │   ├── fs.realpath@1.0.0 </tspan>
<tspan x="10" y="154">  │ │   ├─┬ inflight@1.0.6 </tspan>
<tspan x="10" y="170">  │ │   │ └── wrappy@1.0.2 </tspan>
<tspan x="10" y="186">  │ │   ├─┬ minimatch@3.0.3 </tspan>
<tspan x="10" y="202">  │ │   │ └─┬ brace-expansion@1.1.6 </tspan>
<tspan x="10" y="218">  │ │   │   ├── balanced-match@0.4.2 </tspan>
<tspan x="10" y="234">  │ │   │   └── concat-map@0.0.1 </tspan>
<tspan x="10" y="250">  │ │   ├── once@1.4.0 </tspan>
<tspan x="10" y="266">  │ │   └── path-is-absolute@1.0.1 </tspan>
<tspan x="10" y="282">  │ ├── is-path-cwd@1.0.0 </tspan>
<tspan x="10" y="298">  │ ├─┬ is-path-in-cwd@1.0.0 </tspan>
<tspan x="10" y="314">  │ │ └─┬ is-path-inside@1.0.0 </tspan>
<tspan x="10" y="330">  │ │   └── path-is-inside@1.0.2 </tspan>
<tspan x="10" y="346">  │ ├── object-assign@4.1.1 </tspan>
<tspan x="10" y="362">  │ ├── pify@2.3.0 </tspan>
<tspan x="10" y="378">  │ ├─┬ pinkie-promise@2.0.1 </tspan>
<tspan x="10" y="394">  │ │ └── pinkie@2.0.4 </tspan>
<tspan x="10" y="410">  │ └── rimraf@2.6.1 </tspan>
<tspan x="10" y="426">  ├─┬ email-builder-core@2.1.0 </tspan>
<tspan x="10" y="442">  │ ├─┬ chalk@1.1.3 </tspan>
<tspan x="10" y="458">  │ │ ├── ansi-styles@2.2.1 </tspan>
<tspan x="10" y="474">  │ │ ├── escape-string-regexp@1.0.5 </tspan>
<tspan x="10" y="490">  │ │ ├─┬ has-ansi@2.0.0 </tspan>
<tspan x="10" y="506">  │ │ │ └── ansi-regex@2.1.1 </tspan>
<tspan x="10" y="522">  │ │ ├── strip-ansi@3.0.1 </tspan>
<tspan x="10" y="538">  │ │ └── supports-color@2.0.0 </tspan>
<tspan x="10" y="554">  │ ├─┬ cheerio@0.20.0 </tspan>
<tspan x="10" y="570">  │ │ ├─┬ css-select@1.2.0 </tspan>
<tspan x="10" y="586">  │ │ │ ├── boolbase@1.0.0 </tspan>
<tspan x="10" y="602">  │ │ │ ├── css-what@2.1.0 </tspan>
<tspan x="10" y="618">  │ │ │ ├── domutils@1.5.1 </tspan>
<tspan x="10" y="634">  │ │ │ └── nth-check@1.0.1 </tspan>
<tspan x="10" y="650">  │ │ ├─┬ dom-serializer@0.1.0 </tspan>
<tspan x="10" y="666">  │ │ │ └── domelementtype@1.1.3 </tspan>
<tspan x="10" y="682">  │ │ ├── entities@1.1.1 </tspan>
<tspan x="10" y="698">  │ │ ├─┬ htmlparser2@3.8.3 </tspan>
<tspan x="10" y="714">  │ │ │ ├── domelementtype@1.3.0 </tspan>
<tspan x="10" y="730">  │ │ │ ├── domhandler@2.3.0 </tspan>
<tspan x="10" y="746">  │ │ │ ├── entities@1.0.0 </tspan>
<tspan x="10" y="762">  │ │ │ └─┬ readable-stream@1.1.14 </tspan>
<tspan x="10" y="778">  │ │ │   └── isarray@0.0.1 </tspan>
<tspan x="10" y="794">  │ │ └─┬ jsdom@7.2.2 </tspan>
<tspan x="10" y="810">  │ │   ├── abab@1.0.3 </tspan>
<tspan x="10" y="826">  │ │   ├── acorn@2.7.0 </tspan>
<tspan x="10" y="842">  │ │   ├── acorn-globals@1.0.9 </tspan>
<tspan x="10" y="858">  │ │   ├── cssom@0.3.2 </tspan>
<tspan x="10" y="874">  │ │   ├── cssstyle@0.2.37 </tspan>
<tspan x="10" y="890">  │ │   ├─┬ escodegen@1.8.1 </tspan>
<tspan x="10" y="906">  │ │   │ ├── esprima@2.7.3 </tspan>
<tspan x="10" y="922">  │ │   │ ├── estraverse@1.9.3 </tspan>
<tspan x="10" y="938">  │ │   │ ├── esutils@2.0.2 </tspan>
<tspan x="10" y="954">  │ │   │ ├─┬ optionator@0.8.2 </tspan>
<tspan x="10" y="970">  │ │   │ │ ├── deep-is@0.1.3 </tspan>
<tspan x="10" y="986">  │ │   │ │ ├── fast-levenshtein@2.0.6 </tspan>
<tspan x="10" y="1002">  │ │   │ │ ├── levn@0.3.0 </tspan>
<tspan x="10" y="1018">  │ │   │ │ ├── prelude-ls@1.1.2 </tspan>
<tspan x="10" y="1034">  │ │   │ │ ├── type-check@0.3.2 </tspan>
<tspan x="10" y="1050">  │ │   │ │ └── wordwrap@1.0.0 </tspan>
<tspan x="10" y="1066">  │ │   │ └─┬ source-map@0.2.0 </tspan>
<tspan x="10" y="1082">  │ │   │   └── amdefine@1.0.1 </tspan>
<tspan x="10" y="1098">  │ │   ├── nwmatcher@1.3.9 </tspan>
<tspan x="10" y="1114">  │ │   ├── parse5@1.5.1 </tspan>
<tspan x="10" y="1130">  │ │   ├── sax@1.2.2 </tspan>
<tspan x="10" y="1146">  │ │   ├── symbol-tree@3.2.2 </tspan>
<tspan x="10" y="1162">  │ │   ├─┬ tough-cookie@2.3.2 </tspan>
<tspan x="10" y="1178">  │ │   │ └── punycode@1.4.1 </tspan>
<tspan x="10" y="1194">  │ │   ├── webidl-conversions@2.0.1 </tspan>
<tspan x="10" y="1210">  │ │   ├─┬ whatwg-url-compat@0.6.5 </tspan>
<tspan x="10" y="1226">  │ │   │ └── tr46@0.0.3 </tspan>
<tspan x="10" y="1242">  │ │   └── xml-name-validator@2.0.1 </tspan>
<tspan x="10" y="1258">  │ ├─┬ cli-table@0.3.1 </tspan>
<tspan x="10" y="1274">  │ │ └── colors@1.0.3 </tspan>
<tspan x="10" y="1290">  │ ├─┬ dateformat@1.0.12 </tspan>
<tspan x="10" y="1306">  │ │ ├── get-stdin@4.0.1 </tspan>
<tspan x="10" y="1322">  │ │ └─┬ meow@3.7.0 </tspan>
<tspan x="10" y="1338">  │ │   ├─┬ camelcase-keys@2.1.0 </tspan>
<tspan x="10" y="1354">  │ │   │ └── camelcase@2.1.1 </tspan>
<tspan x="10" y="1370">  │ │   ├── decamelize@1.2.0 </tspan>
<tspan x="10" y="1386">  │ │   ├─┬ loud-rejection@1.6.0 </tspan>
<tspan x="10" y="1402">  │ │   │ ├─┬ currently-unhandled@0.4.1 </tspan>
<tspan x="10" y="1418">  │ │   │ │ └── array-find-index@1.0.2 </tspan>
<tspan x="10" y="1434">  │ │   │ └── signal-exit@3.0.2 </tspan>
<tspan x="10" y="1450">  │ │   ├── map-obj@1.0.1 </tspan>
<tspan x="10" y="1466">  │ │   ├─┬ normalize-package-data@2.3.6 </tspan>
<tspan x="10" y="1482">  │ │   │ ├── hosted-git-info@2.4.1 </tspan>
<tspan x="10" y="1498">  │ │   │ ├─┬ is-builtin-module@1.0.0 </tspan>
<tspan x="10" y="1514">  │ │   │ │ └── builtin-modules@1.1.1 </tspan>
<tspan x="10" y="1530">  │ │   │ ├── semver@5.3.0 </tspan>
<tspan x="10" y="1546">  │ │   │ └─┬ validate-npm-package-license@3.0.1 </tspan>
<tspan x="10" y="1562">  │ │   │   ├─┬ spdx-correct@1.0.2 </tspan>
<tspan x="10" y="1578">  │ │   │   │ └── spdx-license-ids@1.2.2 </tspan>
<tspan x="10" y="1594">  │ │   │   └── spdx-expression-parse@1.0.4 </tspan>
<tspan x="10" y="1610">  │ │   ├─┬ read-pkg-up@1.0.1 </tspan>
<tspan x="10" y="1626">  │ │   │ ├─┬ find-up@1.1.2 </tspan>
<tspan x="10" y="1642">  │ │   │ │ └── path-exists@2.1.0 </tspan>
<tspan x="10" y="1658">  │ │   │ └─┬ read-pkg@1.1.0 </tspan>
<tspan x="10" y="1674">  │ │   │   ├─┬ load-json-file@1.1.0 </tspan>
<tspan x="10" y="1690">  │ │   │   │ ├── graceful-fs@4.1.11 </tspan>
<tspan x="10" y="1706">  │ │   │   │ ├─┬ parse-json@2.2.0 </tspan>
<tspan x="10" y="1722">  │ │   │   │ │ └─┬ error-ex@1.3.1 </tspan>
<tspan x="10" y="1738">  │ │   │   │ │   └── is-arrayish@0.2.1 </tspan>
<tspan x="10" y="1754">  │ │   │   │ └─┬ strip-bom@2.0.0 </tspan>
<tspan x="10" y="1770">  │ │   │   │   └── is-utf8@0.2.1 </tspan>
<tspan x="10" y="1786">  │ │   │   └── path-type@1.1.0 </tspan>
<tspan x="10" y="1802">  │ │   ├─┬ redent@1.0.0 </tspan>
<tspan x="10" y="1818">  │ │   │ ├─┬ indent-string@2.1.0 </tspan>
<tspan x="10" y="1834">  │ │   │ │ └─┬ repeating@2.0.1 </tspan>
<tspan x="10" y="1850">  │ │   │ │   └─┬ is-finite@1.0.2 </tspan>
<tspan x="10" y="1866">  │ │   │ │     └── number-is-nan@1.0.1 </tspan>
<tspan x="10" y="1882">  │ │   │ └── strip-indent@1.0.1 </tspan>
<tspan x="10" y="1898">  │ │   └── trim-newlines@1.0.0 </tspan>
<tspan x="10" y="1914">  │ ├─┬ event-stream@3.3.4 </tspan>
<tspan x="10" y="1930">  │ │ ├── duplexer@0.1.1 </tspan>
<tspan x="10" y="1946">  │ │ ├── from@0.1.7 </tspan>
<tspan x="10" y="1962">  │ │ ├── map-stream@0.1.0 </tspan>
<tspan x="10" y="1978">  │ │ ├── pause-stream@0.0.11 </tspan>
<tspan x="10" y="1994">  │ │ ├── split@0.3.3 </tspan>
<tspan x="10" y="2010">  │ │ ├── stream-combiner@0.0.4 </tspan>
<tspan x="10" y="2026">  │ │ └── through@2.3.8 </tspan>
<tspan x="10" y="2042">  │ ├─┬ is-html@1.1.0 </tspan>
<tspan x="10" y="2058">  │ │ └── html-tags@1.1.1 </tspan>
<tspan x="10" y="2074">  │ ├─┬ juice@2.0.0 </tspan>
<tspan x="10" y="2090">  │ │ ├── batch@0.5.3 </tspan>
<tspan x="10" y="2106">  │ │ ├─┬ commander@2.9.0 </tspan>
<tspan x="10" y="2122">  │ │ │ └── graceful-readlink@1.0.1 </tspan>
<tspan x="10" y="2138">  │ │ ├─┬ cross-spawn-async@2.2.5 </tspan>
<tspan x="10" y="2154">  │ │ │ ├─┬ lru-cache@4.0.2 </tspan>
<tspan x="10" y="2170">  │ │ │ │ ├── pseudomap@1.0.2 </tspan>
<tspan x="10" y="2186">  │ │ │ │ └── yallist@2.1.2 </tspan>
<tspan x="10" y="2202">  │ │ │ └─┬ which@1.2.14 </tspan>
<tspan x="10" y="2218">  │ │ │   └── isexe@2.0.0 </tspan>
<tspan x="10" y="2234">  │ │ ├── cssom@0.3.1 </tspan>
<tspan x="10" y="2250">  │ │ ├── deep-extend@0.4.1 </tspan>
<tspan x="10" y="2266">  │ │ └── slick@1.12.2 </tspan>
<tspan x="10" y="2282">  │ ├─┬ litmus-api@0.3.2 </tspan>
<tspan x="10" y="2298">  │ │ ├── bluebird@1.2.4 </tspan>
<tspan x="10" y="2314">  │ │ └─┬ request@2.36.0 </tspan>
<tspan x="10" y="2330">  │ │   ├── aws-sign2@0.5.0 </tspan>
<tspan x="10" y="2346">  │ │   ├── forever-agent@0.5.2 </tspan>
<tspan x="10" y="2362">  │ │   ├─┬ form-data@0.1.4 </tspan>
<tspan x="10" y="2378">  │ │   │ └─┬ combined-stream@0.0.7 </tspan>
<tspan x="10" y="2394">  │ │   │   └── delayed-stream@0.0.5 </tspan>
<tspan x="10" y="2410">  │ │   ├─┬ hawk@1.0.0 </tspan>
<tspan x="10" y="2426">  │ │   │ ├── boom@0.4.2 </tspan>
<tspan x="10" y="2442">  │ │   │ ├── cryptiles@0.2.2 </tspan>
<tspan x="10" y="2458">  │ │   │ ├── hoek@0.9.1 </tspan>
<tspan x="10" y="2474">  │ │   │ └── sntp@0.2.4 </tspan>
<tspan x="10" y="2490">  │ │   ├─┬ http-signature@0.10.1 </tspan>
<tspan x="10" y="2506">  │ │   │ ├── asn1@0.1.11 </tspan>
<tspan x="10" y="2522">  │ │   │ ├── assert-plus@0.1.5 </tspan>
<tspan x="10" y="2538">  │ │   │ └── ctype@0.5.3 </tspan>
<tspan x="10" y="2554">  │ │   ├── json-stringify-safe@5.0.1 </tspan>
<tspan x="10" y="2570">  │ │   ├── mime@1.2.11 </tspan>
<tspan x="10" y="2586">  │ │   ├── node-uuid@1.4.8 </tspan>
<tspan x="10" y="2602">  │ │   ├── oauth-sign@0.3.0 </tspan>
<tspan x="10" y="2618">  │ │   ├── qs@0.6.6 </tspan>
<tspan x="10" y="2634">  │ │   └── tunnel-agent@0.4.3 </tspan>
<tspan x="10" y="2650">  │ ├── lodash@4.17.4 </tspan>
<tspan x="10" y="2666">  │ ├─┬ nodemailer@2.4.2 </tspan>
<tspan x="10" y="2682">  │ │ ├─┬ libmime@2.0.3 </tspan>
<tspan x="10" y="2698">  │ │ │ ├── iconv-lite@0.4.13 </tspan>
<tspan x="10" y="2714">  │ │ │ ├── libbase64@0.1.0 </tspan>
<tspan x="10" y="2730">  │ │ │ └── libqp@1.1.0 </tspan>
<tspan x="10" y="2746">  │ │ ├─┬ mailcomposer@3.9.0 </tspan>
<tspan x="10" y="2762">  │ │ │ └─┬ buildmail@3.7.0 </tspan>
<tspan x="10" y="2778">  │ │ │   └── addressparser@1.0.1 </tspan>
<tspan x="10" y="2794">  │ │ ├─┬ nodemailer-direct-transport@3.1.0 </tspan>
<tspan x="10" y="2810">  │ │ │ └─┬ smtp-connection@2.5.0 </tspan>
<tspan x="10" y="2826">  │ │ │   └─┬ httpntlm@1.6.1 </tspan>
<tspan x="10" y="2842">  │ │ │     ├── httpreq@0.4.23 </tspan>
<tspan x="10" y="2858">  │ │ │     └── underscore@1.7.0 </tspan>
<tspan x="10" y="2874">  │ │ ├─┬ nodemailer-shared@1.0.5 </tspan>
<tspan x="10" y="2890">  │ │ │ └── nodemailer-fetch@1.4.0 </tspan>
<tspan x="10" y="2906">  │ │ ├─┬ nodemailer-smtp-pool@2.6.0 </tspan>
<tspan x="10" y="2922">  │ │ │ └── nodemailer-wellknown@0.1.9 </tspan>
<tspan x="10" y="2938">  │ │ ├── nodemailer-smtp-transport@2.5.0 </tspan>
<tspan x="10" y="2954">  │ │ └─┬ socks@1.1.9 </tspan>
<tspan x="10" y="2970">  │ │   ├── ip@1.1.5 </tspan>
<tspan x="10" y="2986">  │ │   └── smart-buffer@1.1.15 </tspan>
<tspan x="10" y="3002">  │ ├── special-html@0.0.1 </tspan>
<tspan x="10" y="3018">  │ ├─┬ web-resource-inliner@2.0.0 </tspan>
<tspan x="10" y="3034">  │ │ ├── async@0.9.2 </tspan>
<tspan x="10" y="3050">  │ │ ├─┬ clean-css@1.1.7 </tspan>
<tspan x="10" y="3066">  │ │ │ └── commander@2.0.0 </tspan>
<tspan x="10" y="3082">  │ │ ├─┬ cli-color@0.3.3 </tspan>
<tspan x="10" y="3098">  │ │ │ ├── d@0.1.1 </tspan>
<tspan x="10" y="3114">  │ │ │ ├─┬ es5-ext@0.10.15 </tspan>
<tspan x="10" y="3130">  │ │ │ │ ├─┬ es6-iterator@2.0.1 </tspan>
<tspan x="10" y="3146">  │ │ │ │ │ └── d@1.0.0 </tspan>
<tspan x="10" y="3162">  │ │ │ │ └─┬ es6-symbol@3.1.1 </tspan>
<tspan x="10" y="3178">  │ │ │ │   └── d@1.0.0 </tspan>
<tspan x="10" y="3194">  │ │ │ ├─┬ memoizee@0.3.10 </tspan>
<tspan x="10" y="3210">  │ │ │ │ ├─┬ es6-weak-map@0.1.4 </tspan>
<tspan x="10" y="3226">  │ │ │ │ │ ├── es6-iterator@0.1.3 </tspan>
<tspan x="10" y="3242">  │ │ │ │ │ └── es6-symbol@2.0.1 </tspan>
<tspan x="10" y="3258">  │ │ │ │ ├─┬ event-emitter@0.3.5 </tspan>
<tspan x="10" y="3274">  │ │ │ │ │ └── d@1.0.0 </tspan>
<tspan x="10" y="3290">  │ │ │ │ ├── lru-queue@0.1.0 </tspan>
<tspan x="10" y="3306">  │ │ │ │ └── next-tick@0.2.2 </tspan>
<tspan x="10" y="3322">  │ │ │ └─┬ timers-ext@0.1.2 </tspan>
<tspan x="10" y="3338">  │ │ │   └── next-tick@1.0.0 </tspan>
<tspan x="10" y="3354">  │ │ ├─┬ datauri@0.2.1 </tspan>
<tspan x="10" y="3370">  │ │ │ ├── mimer@0.2.1 </tspan>
<tspan x="10" y="3386">  │ │ │ └── templayed@0.2.3 </tspan>
<tspan x="10" y="3402">  │ │ ├─┬ htmlparser2@3.9.2 </tspan>
<tspan x="10" y="3418">  │ │ │ └─┬ readable-stream@2.2.6 </tspan>
<tspan x="10" y="3434">  │ │ │   └── isarray@1.0.0 </tspan>
<tspan x="10" y="3450">  │ │ ├── lodash@3.10.1 </tspan>
<tspan x="10" y="3466">  │ │ ├─┬ request@2.81.0 </tspan>
<tspan x="10" y="3482">  │ │ │ ├── aws-sign2@0.6.0 </tspan>
<tspan x="10" y="3498">  │ │ │ ├── aws4@1.6.0 </tspan>
<tspan x="10" y="3514">  │ │ │ ├── caseless@0.12.0 </tspan>
<tspan x="10" y="3530">  │ │ │ ├─┬ combined-stream@1.0.5 </tspan>
<tspan x="10" y="3546">  │ │ │ │ └── delayed-stream@1.0.0 </tspan>
<tspan x="10" y="3562">  │ │ │ ├── extend@3.0.0 </tspan>
<tspan x="10" y="3578">  │ │ │ ├── forever-agent@0.6.1 </tspan>
<tspan x="10" y="3594">  │ │ │ ├─┬ form-data@2.1.2 </tspan>
<tspan x="10" y="3610">  │ │ │ │ └── asynckit@0.4.0 </tspan>
<tspan x="10" y="3626">  │ │ │ ├─┬ har-validator@4.2.1 </tspan>
<tspan x="10" y="3642">  │ │ │ │ ├─┬ ajv@4.11.5 </tspan>
<tspan x="10" y="3658">  │ │ │ │ │ ├── co@4.6.0 </tspan>
<tspan x="10" y="3674">  │ │ │ │ │ └─┬ json-stable-stringify@1.0.1 </tspan>
<tspan x="10" y="3690">  │ │ │ │ │   └── jsonify@0.0.0 </tspan>
<tspan x="10" y="3706">  │ │ │ │ └── har-schema@1.0.5 </tspan>
<tspan x="10" y="3722">  │ │ │ ├─┬ hawk@3.1.3 </tspan>
<tspan x="10" y="3738">  │ │ │ │ ├── boom@2.10.1 </tspan>
<tspan x="10" y="3754">  │ │ │ │ ├── cryptiles@2.0.5 </tspan>
<tspan x="10" y="3770">  │ │ │ │ ├── hoek@2.16.3 </tspan>
<tspan x="10" y="3786">  │ │ │ │ └── sntp@1.0.9 </tspan>
<tspan x="10" y="3802">  │ │ │ ├─┬ http-signature@1.1.1 </tspan>
<tspan x="10" y="3818">  │ │ │ │ ├── assert-plus@0.2.0 </tspan>
<tspan x="10" y="3834">  │ │ │ │ ├─┬ jsprim@1.4.0 </tspan>
<tspan x="10" y="3850">  │ │ │ │ │ ├── assert-plus@1.0.0 </tspan>
<tspan x="10" y="3866">  │ │ │ │ │ ├── extsprintf@1.0.2 </tspan>
<tspan x="10" y="3882">  │ │ │ │ │ ├── json-schema@0.2.3 </tspan>
<tspan x="10" y="3898">  │ │ │ │ │ └── verror@1.3.6 </tspan>
<tspan x="10" y="3914">  │ │ │ │ └─┬ sshpk@1.11.0 </tspan>
<tspan x="10" y="3930">  │ │ │ │   ├── asn1@0.2.3 </tspan>
<tspan x="10" y="3946">  │ │ │ │   ├── assert-plus@1.0.0 </tspan>
<tspan x="10" y="3962">  │ │ │ │   ├── bcrypt-pbkdf@1.0.1 </tspan>
<tspan x="10" y="3978">  │ │ │ │   ├─┬ dashdash@1.14.1 </tspan>
<tspan x="10" y="3994">  │ │ │ │   │ └── assert-plus@1.0.0 </tspan>
<tspan x="10" y="4010">  │ │ │ │   ├── ecc-jsbn@0.1.1 </tspan>
<tspan x="10" y="4026">  │ │ │ │   ├─┬ getpass@0.1.6 </tspan>
<tspan x="10" y="4042">  │ │ │ │   │ └── assert-plus@1.0.0 </tspan>
<tspan x="10" y="4058">  │ │ │ │   ├── jodid25519@1.0.2 </tspan>
<tspan x="10" y="4074">  │ │ │ │   ├── jsbn@0.1.1 </tspan>
<tspan x="10" y="4090">  │ │ │ │   └── tweetnacl@0.14.5 </tspan>
<tspan x="10" y="4106">  │ │ │ ├── is-typedarray@1.0.0 </tspan>
<tspan x="10" y="4122">  │ │ │ ├─┬ mime-types@2.1.15 </tspan>
<tspan x="10" y="4138">  │ │ │ │ └── mime-db@1.27.0 </tspan>
<tspan x="10" y="4154">  │ │ │ ├── oauth-sign@0.8.2 </tspan>
<tspan x="10" y="4170">  │ │ │ ├── performance-now@0.2.0 </tspan>
<tspan x="10" y="4186">  │ │ │ ├── qs@6.4.0 </tspan>
<tspan x="10" y="4202">  │ │ │ ├── safe-buffer@5.0.1 </tspan>
<tspan x="10" y="4218">  │ │ │ ├── stringstream@0.0.5 </tspan>
<tspan x="10" y="4234">  │ │ │ ├── tunnel-agent@0.6.0 </tspan>
<tspan x="10" y="4250">  │ │ │ └── uuid@3.0.1 </tspan>
<tspan x="10" y="4266">  │ │ └─┬ uglify-js@2.8.21 </tspan>
<tspan x="10" y="4282">  │ │   ├── source-map@0.5.6 </tspan>
<tspan x="10" y="4298">  │ │   ├── uglify-to-browserify@1.0.2 </tspan>
<tspan x="10" y="4314">  │ │   └─┬ yargs@3.10.0 </tspan>
<tspan x="10" y="4330">  │ │     ├── camelcase@1.2.1 </tspan>
<tspan x="10" y="4346">  │ │     ├─┬ cliui@2.1.0 </tspan>
<tspan x="10" y="4362">  │ │     │ ├─┬ center-align@0.1.3 </tspan>
<tspan x="10" y="4378">  │ │     │ │ ├─┬ align-text@0.1.4 </tspan>
<tspan x="10" y="4394">  │ │     │ │ │ ├─┬ kind-of@3.1.0 </tspan>
<tspan x="10" y="4410">  │ │     │ │ │ │ └── is-buffer@1.1.5 </tspan>
<tspan x="10" y="4426">  │ │     │ │ │ ├── longest@1.0.1 </tspan>
<tspan x="10" y="4442">  │ │     │ │ │ └── repeat-string@1.6.1 </tspan>
<tspan x="10" y="4458">  │ │     │ │ └── lazy-cache@1.0.4 </tspan>
<tspan x="10" y="4474">  │ │     │ ├── right-align@0.1.3 </tspan>
<tspan x="10" y="4490">  │ │     │ └── wordwrap@0.0.2 </tspan>
<tspan x="10" y="4506">  │ │     └── window-size@0.1.0 </tspan>
<tspan x="10" y="4522">  │ ├─┬ winston@2.3.1 </tspan>
<tspan x="10" y="4538">  │ │ ├── async@1.0.0 </tspan>
<tspan x="10" y="4554">  │ │ ├── cycle@1.0.3 </tspan>
<tspan x="10" y="4570">  │ │ ├── eyes@0.1.8 </tspan>
<tspan x="10" y="4586">  │ │ ├── isstream@0.1.2 </tspan>
<tspan x="10" y="4602">  │ │ └── stack-trace@0.0.9 </tspan>
<tspan x="10" y="4618">  │ └── xmlbuilder@8.2.2 </tspan>
<tspan x="10" y="4634">  ├─┬ gulp-util@3.0.8 </tspan>
<tspan x="10" y="4650">  │ ├── array-differ@1.0.0 </tspan>
<tspan x="10" y="4666">  │ ├── array-uniq@1.0.3 </tspan>
<tspan x="10" y="4682">  │ ├── beeper@1.1.1 </tspan>
<tspan x="10" y="4698">  │ ├── dateformat@2.0.0 </tspan>
<tspan x="10" y="4714">  │ ├─┬ fancy-log@1.3.0 </tspan>
<tspan x="10" y="4730">  │ │ └── time-stamp@1.0.1 </tspan>
<tspan x="10" y="4746">  │ ├─┬ gulplog@1.0.0 </tspan>
<tspan x="10" y="4762">  │ │ └── glogg@1.0.0 </tspan>
<tspan x="10" y="4778">  │ ├─┬ has-gulplog@0.1.0 </tspan>
<tspan x="10" y="4794">  │ │ └── sparkles@1.0.0 </tspan>
<tspan x="10" y="4810">  │ ├── lodash._reescape@3.0.0 </tspan>
<tspan x="10" y="4826">  │ ├── lodash._reevaluate@3.0.0 </tspan>
<tspan x="10" y="4842">  │ ├── lodash._reinterpolate@3.0.0 </tspan>
<tspan x="10" y="4858">  │ ├─┬ lodash.template@3.6.2 </tspan>
<tspan x="10" y="4874">  │ │ ├── lodash._basecopy@3.0.1 </tspan>
<tspan x="10" y="4890">  │ │ ├── lodash._basetostring@3.0.1 </tspan>
<tspan x="10" y="4906">  │ │ ├── lodash._basevalues@3.0.0 </tspan>
<tspan x="10" y="4922">  │ │ ├── lodash._isiterateecall@3.0.9 </tspan>
<tspan x="10" y="4938">  │ │ ├─┬ lodash.escape@3.2.0 </tspan>
<tspan x="10" y="4954">  │ │ │ └── lodash._root@3.0.1 </tspan>
<tspan x="10" y="4970">  │ │ ├─┬ lodash.keys@3.1.2 </tspan>
<tspan x="10" y="4986">  │ │ │ ├── lodash._getnative@3.9.1 </tspan>
<tspan x="10" y="5002">  │ │ │ ├── lodash.isarguments@3.1.0 </tspan>
<tspan x="10" y="5018">  │ │ │ └── lodash.isarray@3.0.4 </tspan>
<tspan x="10" y="5034">  │ │ ├── lodash.restparam@3.6.1 </tspan>
<tspan x="10" y="5050">  │ │ └── lodash.templatesettings@3.1.1 </tspan>
<tspan x="10" y="5066">  │ ├── minimist@1.2.0 </tspan>
<tspan x="10" y="5082">  │ ├─┬ multipipe@0.1.2 </tspan>
<tspan x="10" y="5098">  │ │ └── duplexer2@0.0.2 </tspan>
<tspan x="10" y="5114">  │ ├── object-assign@3.0.0 </tspan>
<tspan x="10" y="5130">  │ ├── replace-ext@0.0.1 </tspan>
<tspan x="10" y="5146">  │ └─┬ vinyl@0.5.3 </tspan>
<tspan x="10" y="5162">  │   ├── clone@1.0.2 </tspan>
<tspan x="10" y="5178">  │   └── clone-stats@0.0.1 </tspan>
<tspan x="10" y="5194">  └─┬ through2@2.0.3 </tspan>
<tspan x="10" y="5210">    ├─┬ readable-stream@2.2.6 </tspan>
<tspan x="10" y="5226">    │ ├── buffer-shims@1.0.0 </tspan>
<tspan x="10" y="5242">    │ ├── core-util-is@1.0.2 </tspan>
<tspan x="10" y="5258">    │ ├── inherits@2.0.3 </tspan>
<tspan x="10" y="5274">    │ ├── isarray@1.0.0 </tspan>
<tspan x="10" y="5290">    │ ├── process-nextick-args@1.0.7 </tspan>
<tspan x="10" y="5306">    │ ├── string_decoder@0.10.31 </tspan>
<tspan x="10" y="5322">    │ └── util-deprecate@1.0.2 </tspan>
<tspan x="10" y="5338">    └── xtend@4.0.1</tspan>
</text>
</svg>
